<?xml version="1.0" encoding="UTF-8"?> <svg xmlns="http://www.w3.org/2000/svg" width="44" height="45" viewBox="0 0 44 45" fill="none"> <path d="M22 45C34.1503 45 44 34.9264 44 22.5C44 10.0736 34.1503 0 22 0C9.84974 0 0 10.0736 0 22.5C0 34.9264 9.84974 45 22 45Z" fill="#039BE5"></path> <path d="M10.0668 22.0126L31.2785 13.6483C32.263 13.2845 33.1228 13.8939 32.8038 15.4164L32.8057 15.4145L29.194 32.8164C28.9263 34.0502 28.2095 34.3502 27.2067 33.7689L21.7067 29.6233L19.0538 32.237C18.7605 32.537 18.513 32.7902 17.9447 32.7902L18.3352 27.0658L28.5285 17.6476C28.9722 17.2483 28.4295 17.0233 27.8447 17.4208L15.2478 25.532L9.81749 23.7995C8.63866 23.417 8.61299 22.5939 10.0668 22.0126V22.0126Z" fill="white"></path> </svg> 