<?xml version="1.0" encoding="UTF-8"?> <svg xmlns="http://www.w3.org/2000/svg" width="238" height="199" viewBox="0 0 238 199" fill="none"> <path d="M73.1818 97.8871C82.5151 101.726 89.7273 107.91 94.8182 116.441C100.333 124.545 103.091 134.355 103.091 145.871C103.091 161.226 98.2121 173.808 88.4545 183.618C78.697 193.428 66.6061 198.333 52.1818 198.333C36.9091 198.333 24.3939 193.428 14.6364 183.618C4.87879 173.808 0 161.226 0 145.871C0 138.194 0.848485 130.729 2.54545 123.478C4.66667 116.228 8.48485 105.351 14 90.8495L47.7273 0H98.6364L73.1818 97.8871ZM208.091 97.8871C217.424 101.726 224.636 107.91 229.727 116.441C235.242 124.545 238 134.355 238 145.871C238 161.226 233.121 173.808 223.364 183.618C213.606 193.428 201.515 198.333 187.091 198.333C171.818 198.333 159.303 193.428 149.545 183.618C139.788 173.808 134.909 161.226 134.909 145.871C134.909 138.194 135.758 130.729 137.455 123.478C139.576 116.228 143.394 105.351 148.909 90.8495L182.636 0H233.545L208.091 97.8871Z" fill="white"></path> </svg> 