<?xml version="1.0" encoding="UTF-8"?> <svg xmlns="http://www.w3.org/2000/svg" width="75" height="268" viewBox="0 0 75 268" fill="none"> <path d="M73.4983 1.92901C73.4591 1.10151 72.7565 0.462474 71.929 0.501681L58.4441 1.1406C57.6166 1.1798 56.9776 1.88241 57.0168 2.70991C57.056 3.5374 57.7586 4.17644 58.5861 4.13723L70.5727 3.56931L71.1406 15.5559C71.1798 16.3834 71.8824 17.0224 72.7099 16.9832C73.5374 16.944 74.1764 16.2414 74.1372 15.4139L73.4983 1.92901ZM70.8903 0.990726C52.4531 21.2619 27.6358 58.8436 12.9284 105.855C-1.78505 152.885 -6.40241 209.431 15.7028 267.533L18.5067 266.467C-3.30431 209.138 1.22754 153.303 15.7916 106.75C30.3616 60.1784 54.95 22.9753 73.1097 3.00927L70.8903 0.990726Z" fill="white"></path> </svg> 